<svg width="16" height="14" viewBox="0 0 16 14" fill="none" xmlns="http://www.w3.org/2000/svg">
<path d="M15.1077 13.5H11.5629C11.2037 13.5006 10.8797 13.2749 10.742 12.9282C10.6044 12.5816 10.6804 12.1824 10.9344 11.9171L11.8055 11.0077L7.9513 6.67705L6.8953 7.70352L6.8473 7.75C6.4805 8.10738 5.906 8.08659 5.5637 7.70352L0.173527 1.66548C-0.0660831 1.39022 -0.0564128 0.966826 0.195487 0.703785C0.447377 0.440849 0.852578 0.431134 1.11575 0.681744L6.1824 5.61716L7.274 4.39002C7.6482 3.96965 8.2775 3.94552 8.6802 4.33622L8.7362 4.39002L13.61 9.12193L14.4802 8.21351C14.7341 7.94838 15.1158 7.8692 15.4475 8.01263C15.7791 8.15616 15.9955 8.49421 15.9957 8.86934V12.5729C15.9948 13.0849 15.5976 13.4995 15.1077 13.5Z" fill="black"/>
</svg>
